<?xml version="1.0" encoding="UTF-8"?>
<!--Generator: Apple Native CoreSVG 341-->
<!DOCTYPE svg
PUBLIC "-//W3C//DTD SVG 1.1//EN"
       "http://www.w3.org/Graphics/SVG/1.1/DTD/svg11.dtd">
<svg version="1.1" xmlns="http://www.w3.org/2000/svg" xmlns:xlink="http://www.w3.org/1999/xlink" viewBox="0 0 14.5517 14.1659">
 <g>
  <rect height="14.1659" opacity="0" width="14.5517" x="0" y="0"/>
  <path d="M9.0768 14.1659L12.8131 14.1659C13.6915 14.1659 14.1455 13.7391 14.1455 12.8145L14.1455 9.11344C14.1455 8.19414 13.6915 7.76195 12.8131 7.76195L9.0768 7.76195C8.19305 7.76195 7.74149 8.19414 7.74149 9.11344L7.74149 12.8145C7.74149 13.7391 8.19305 14.1659 9.0768 14.1659Z" fill="beige"/>
  <path d="M1.32992 14.1659L5.07164 14.1659C5.95 14.1659 6.40399 13.7391 6.40399 12.8145L6.40399 9.11344C6.40399 8.19414 5.95 7.76195 5.07164 7.76195L1.32992 7.76195C0.451563 7.76195 0 8.19414 0 9.11344L0 12.8145C0 13.7391 0.451563 14.1659 1.32992 14.1659Z" fill="beige"/>
  <path d="M9.0768 6.42445L12.8131 6.42445C13.6915 6.42445 14.1455 5.99227 14.1455 5.06758L14.1455 1.37195C14.1455 0.447266 13.6915 0.0204687 12.8131 0.0204687L9.0768 0.0204687C8.19305 0.0204687 7.74149 0.447266 7.74149 1.37195L7.74149 5.06758C7.74149 5.99227 8.19305 6.42445 9.0768 6.42445Z" fill="beige"/>
  <path d="M1.32992 6.42445L5.07164 6.42445C5.95 6.42445 6.40399 5.99227 6.40399 5.06758L6.40399 1.37195C6.40399 0.447266 5.95 0.0204687 5.07164 0.0204687L1.32992 0.0204687C0.451563 0.0204687 0 0.447266 0 1.37195L0 5.06758C0 5.99227 0.451563 6.42445 1.32992 6.42445Z" fill="beige"/>
 </g>
</svg>
