<?xml version="1.0" encoding="UTF-8"?>
<!--Generator: Apple Native CoreSVG 341-->
<!DOCTYPE svg
PUBLIC "-//W3C//DTD SVG 1.1//EN"
       "http://www.w3.org/Graphics/SVG/1.1/DTD/svg11.dtd">
<svg version="1.1" xmlns="http://www.w3.org/2000/svg" xmlns:xlink="http://www.w3.org/1999/xlink" viewBox="0 0 14.5517 14.1503">
 <g>
  <rect height="14.1503" opacity="0" width="14.5517" x="0" y="0"/>
  <path d="M9.0768 14.1455L12.8131 14.1455C13.6915 14.1455 14.1455 13.7187 14.1455 12.794L14.1455 9.10078C14.1455 8.17367 13.6915 7.7493 12.8131 7.7493L9.0768 7.7493C8.19305 7.7493 7.74149 8.17367 7.74149 9.10078L7.74149 12.794C7.74149 13.7187 8.19305 14.1455 9.0768 14.1455ZM9.09485 13.2837C8.75305 13.2837 8.60571 13.1285 8.60571 12.7921L8.60571 9.10563C8.60571 8.76383 8.75305 8.6111 9.09485 8.6111L12.7975 8.6111C13.1339 8.6111 13.2812 8.76383 13.2812 9.10563L13.2812 12.7921C13.2812 13.1285 13.1339 13.2837 12.7975 13.2837Z" fill="beige"/>
  <path d="M1.32992 14.1455L5.07164 14.1455C5.95 14.1455 6.40399 13.7187 6.40399 12.794L6.40399 9.10078C6.40399 8.17367 5.95 7.7493 5.07164 7.7493L1.32992 7.7493C0.451563 7.7493 0 8.17367 0 9.10078L0 12.794C0 13.7187 0.451563 14.1455 1.32992 14.1455ZM1.34797 13.2837C1.01156 13.2837 0.861799 13.1285 0.861799 12.7921L0.861799 9.10563C0.861799 8.76383 1.01156 8.6111 1.34797 8.6111L5.05062 8.6111C5.38703 8.6111 5.53976 8.76383 5.53976 9.10563L5.53976 12.7921C5.53976 13.1285 5.38703 13.2837 5.05062 13.2837Z" fill="beige"/>
  <path d="M9.0768 6.40399L12.8131 6.40399C13.6915 6.40399 14.1455 5.97719 14.1455 5.0525L14.1455 1.35149C14.1455 0.432188 13.6915 0 12.8131 0L9.0768 0C8.19305 0 7.74149 0.432188 7.74149 1.35149L7.74149 5.0525C7.74149 5.97719 8.19305 6.40399 9.0768 6.40399ZM9.09485 5.54219C8.75305 5.54219 8.60571 5.38703 8.60571 5.03984L8.60571 1.35875C8.60571 1.01695 8.75305 0.864221 9.09485 0.864221L12.7975 0.864221C13.1339 0.864221 13.2812 1.01695 13.2812 1.35875L13.2812 5.03984C13.2812 5.38703 13.1339 5.54219 12.7975 5.54219Z" fill="beige"/>
  <path d="M1.32992 6.40399L5.07164 6.40399C5.95 6.40399 6.40399 5.97719 6.40399 5.0525L6.40399 1.35149C6.40399 0.432188 5.95 0 5.07164 0L1.32992 0C0.451563 0 0 0.432188 0 1.35149L0 5.0525C0 5.97719 0.451563 6.40399 1.32992 6.40399ZM1.34797 5.54219C1.01156 5.54219 0.861799 5.38703 0.861799 5.03984L0.861799 1.35875C0.861799 1.01695 1.01156 0.864221 1.34797 0.864221L5.05062 0.864221C5.38703 0.864221 5.53976 1.01695 5.53976 1.35875L5.53976 5.03984C5.53976 5.38703 5.38703 5.54219 5.05062 5.54219Z" fill="beige"/>
 </g>
</svg>
