<?xml version="1.0" encoding="UTF-8"?>
<!--Generator: Apple Native CoreSVG 341-->
<!DOCTYPE svg
PUBLIC "-//W3C//DTD SVG 1.1//EN"
       "http://www.w3.org/Graphics/SVG/1.1/DTD/svg11.dtd">
<svg version="1.1" xmlns="http://www.w3.org/2000/svg" xmlns:xlink="http://www.w3.org/1999/xlink" viewBox="0 0 16.0798 15.6789">
 <g>
  <rect height="15.6789" opacity="0" width="16.0798" x="0" y="0"/>
  <path d="M5.93492 14.5671C4.2607 14.0959 2.83242 13.0006 1.92242 11.5602L4.78344 11.5188L5.80938 10.2051L4.92258 7.45985L3.00273 6.68555L0.826486 7.90742C0.831877 6.1357 1.44203 4.58188 2.45735 3.37016L3.26492 6.02859L5.13195 6.7843L7.475 4.98297L7.475 3.05422L5.3211 1.3068C6.10313 1.0032 6.9525 0.837267 7.83016 0.837267C8.71024 0.837267 9.55719 1.00078 10.3392 1.3068L8.19313 3.04695L8.19313 4.98297L10.5362 6.7843L12.3978 6.02859L13.2054 3.37016C14.2207 4.58188 14.8309 6.1357 14.8363 7.90742L12.66 6.68555L10.7402 7.45985L9.85094 10.2051L10.8793 11.5188L13.7403 11.5602C12.8303 13.0006 11.3996 14.0959 9.72781 14.5671L10.3309 11.9634L9.40844 10.7892L6.2543 10.7892L5.33719 11.9634ZM7.83555 15.6711C12.1638 15.6711 15.6735 12.1613 15.6735 7.83555C15.6735 3.50734 12.1638 0 7.83555 0C3.50977 0 0 3.50734 0 7.83555C0 12.1613 3.50977 15.6711 7.83555 15.6711Z" fill="beige"/>
 </g>
</svg>
