<?xml version="1.0" encoding="UTF-8"?>
<!--Generator: Apple Native CoreSVG 341-->
<!DOCTYPE svg
PUBLIC "-//W3C//DTD SVG 1.1//EN"
       "http://www.w3.org/Graphics/SVG/1.1/DTD/svg11.dtd">
<svg version="1.1" xmlns="http://www.w3.org/2000/svg" xmlns:xlink="http://www.w3.org/1999/xlink" viewBox="0 0 16.0798 15.6789">
 <g>
  <rect height="15.6789" opacity="0" width="16.0798" x="0" y="0"/>
  <path d="M7.83555 4.71L4.79836 7.04649L6.01227 10.7892L9.65883 10.7892L10.8752 7.04649ZM10.5777 1.1168L7.82774 0.271641L5.07234 1.1168L7.82774 3.33555ZM7.48578 0.561485L7.48578 5.57594L8.19313 5.57594L8.19313 0.561485ZM13.2887 3.08555L12.2652 6.46836L15.3434 8.19492L14.7905 5.00602ZM14.9682 5.75289L14.7006 5.10133L10.0491 6.9807L10.3166 7.63766ZM9.63484 14.9563L12.2466 13.8259L14.1078 11.5656L10.4341 11.5134ZM12.4141 13.4886L9.33367 9.53102L8.76188 9.96297L11.8525 13.9152ZM6.03086 14.9371L5.23399 11.4918L1.56031 11.5465L3.42149 13.8043ZM3.25164 13.4695L3.81563 13.896L6.90625 9.94141L6.33445 9.50945ZM2.38242 3.08555L0.88297 5.00602L0.327735 8.19492L3.40828 6.46836ZM0.705313 5.75289L5.35688 7.63766L5.62445 6.9807L0.972891 5.10133ZM7.83555 15.6711C12.1638 15.6711 15.6735 12.1613 15.6735 7.83555C15.6735 3.50734 12.1638 0 7.83555 0C3.50977 0 0 3.50734 0 7.83555C0 12.1613 3.50977 15.6711 7.83555 15.6711ZM7.83555 14.8338C3.96977 14.8338 0.837267 11.7013 0.837267 7.83555C0.837267 3.96977 3.96977 0.837267 7.83555 0.837267C11.7013 0.837267 14.8363 3.96977 14.8363 7.83555C14.8363 11.7013 11.7013 14.8338 7.83555 14.8338Z" fill="beige"/>
 </g>
</svg>
