<?xml version="1.0" encoding="UTF-8"?>
<!--Generator: Apple Native CoreSVG 341-->
<!DOCTYPE svg
PUBLIC "-//W3C//DTD SVG 1.1//EN"
       "http://www.w3.org/Graphics/SVG/1.1/DTD/svg11.dtd">
<svg version="1.1" xmlns="http://www.w3.org/2000/svg" xmlns:xlink="http://www.w3.org/1999/xlink" viewBox="0 0 13.3241 16.655">
 <g>
  <rect height="16.655" opacity="0" width="13.3241" x="0" y="0"/>
  <path d="M0 14.355C0 15.8813 0.76836 16.655 2.28383 16.655L10.634 16.655C12.1495 16.655 12.9178 15.8813 12.9178 14.355L12.9178 2.30969C12.9178 0.788828 12.1495 0.00429678 10.634 0.00429678L2.28383 0.00429678C0.76836 0.00429678 0 0.788828 0 2.30969ZM0.96719 14.334L0.96719 2.3307C0.96719 1.45016 1.42969 0.971487 2.3318 0.971487L10.586 0.971487C11.4881 0.971487 11.9506 1.45016 11.9506 2.3307L11.9506 14.334C11.9506 15.2145 11.4881 15.6878 10.586 15.6878L2.3318 15.6878C1.42969 15.6878 0.96719 15.2145 0.96719 14.334Z" fill="beige"/>
  <path d="M2.9418 4.14266C3.33836 4.14266 3.65383 3.82719 3.65383 3.43063C3.65383 3.03703 3.33836 2.71617 2.9418 2.71617C2.5536 2.71617 2.22735 3.04242 2.22735 3.43063C2.22735 3.8218 2.5536 4.14266 2.9418 4.14266Z" fill="beige"/>
  <path d="M5.13039 3.82352L10.303 3.82352C10.5177 3.82352 10.6905 3.65078 10.6905 3.43063C10.6905 3.21344 10.5177 3.04313 10.303 3.04313L5.13039 3.04313C4.91563 3.04313 4.74289 3.21344 4.74289 3.43063C4.74289 3.65078 4.91563 3.82352 5.13039 3.82352Z" fill="beige"/>
  <path d="M2.9418 6.59625C3.33836 6.59625 3.65383 6.27297 3.65383 5.8818C3.65383 5.48523 3.33836 5.17516 2.9418 5.17516C2.55063 5.17516 2.22735 5.49063 2.22735 5.8818C2.22735 6.27297 2.55063 6.59625 2.9418 6.59625Z" fill="beige"/>
  <path d="M5.13039 6.2693L10.303 6.2693C10.5231 6.2693 10.6905 6.10438 10.6905 5.8818C10.6905 5.66164 10.5231 5.4943 10.303 5.4943L5.13039 5.4943C4.91024 5.4943 4.74289 5.66164 4.74289 5.8818C4.74289 6.10438 4.91024 6.2693 5.13039 6.2693Z" fill="beige"/>
  <path d="M2.9418 9.12047C3.33836 9.12047 3.65383 8.79961 3.65383 8.40602C3.65383 8.00945 3.33836 7.69398 2.9418 7.69398C2.5536 7.69398 2.22735 8.01484 2.22735 8.40602C2.22735 8.79422 2.5536 9.12047 2.9418 9.12047Z" fill="beige"/>
  <path d="M5.13039 8.79352L10.303 8.79352C10.5177 8.79352 10.6905 8.6232 10.6905 8.40602C10.6905 8.19125 10.5231 8.01852 10.303 8.01852L5.13039 8.01852C4.91024 8.01852 4.74289 8.19125 4.74289 8.40602C4.74289 8.6232 4.91563 8.79352 5.13039 8.79352Z" fill="beige"/>
 </g>
</svg>
