<?xml version="1.0" encoding="UTF-8"?>
<!--Generator: Apple Native CoreSVG 341-->
<!DOCTYPE svg
PUBLIC "-//W3C//DTD SVG 1.1//EN"
       "http://www.w3.org/Graphics/SVG/1.1/DTD/svg11.dtd">
<svg version="1.1" xmlns="http://www.w3.org/2000/svg" xmlns:xlink="http://www.w3.org/1999/xlink" viewBox="0 0 13.3241 16.655">
 <g>
  <rect height="16.655" opacity="0" width="13.3241" x="0" y="0"/>
  <path d="M12.9178 2.30969L12.9178 14.355C12.9178 15.8813 12.1495 16.655 10.634 16.655L2.28383 16.655C0.76836 16.655 0 15.8813 0 14.355L0 2.30969C0 0.788828 0.76836 0.00429678 2.28383 0.00429678L10.634 0.00429678C12.1495 0.00429678 12.9178 0.788828 12.9178 2.30969ZM5.11125 8.05625C4.87789 8.05625 4.70758 8.23195 4.70758 8.4575C4.70758 8.68008 4.88328 8.85578 5.11125 8.85578L10.3736 8.85578C10.5962 8.85578 10.7719 8.68008 10.7719 8.4575C10.7719 8.23195 10.6016 8.05625 10.3736 8.05625ZM5.11125 5.47812C4.87789 5.47812 4.70758 5.65086 4.70758 5.8818C4.70758 6.10977 4.87789 6.28008 5.11125 6.28008L10.3736 6.28008C10.6016 6.28008 10.7719 6.10977 10.7719 5.8818C10.7719 5.65086 10.6016 5.47812 10.3736 5.47812ZM5.11125 2.98086C4.88328 2.98086 4.70758 3.15656 4.70758 3.37914C4.70758 3.61008 4.88328 3.78578 5.11125 3.78578L10.3736 3.78578C10.5962 3.78578 10.7719 3.61008 10.7719 3.37914C10.7719 3.15656 10.5962 2.98086 10.3736 2.98086Z" fill="beige"/>
  <path d="M3.60235 3.37914C3.60235 3.78649 3.2761 4.10734 2.87414 4.10734C2.47758 4.10734 2.14594 3.78109 2.14594 3.37914C2.14594 2.98555 2.47758 2.64852 2.87414 2.64852C3.2761 2.64852 3.60235 2.98016 3.60235 3.37914Z" fill="beige"/>
  <path d="M3.60235 5.8818C3.60235 6.27836 3.2761 6.61242 2.87414 6.61242C2.47219 6.61242 2.14594 6.27836 2.14594 5.8818C2.14594 5.47984 2.47219 5.15898 2.87414 5.15898C3.2761 5.15898 3.60235 5.47445 3.60235 5.8818Z" fill="beige"/>
  <path d="M3.60235 8.4575C3.60235 8.85648 3.2761 9.18813 2.87414 9.18813C2.47758 9.18813 2.14594 8.85109 2.14594 8.4575C2.14594 8.05555 2.47758 7.7293 2.87414 7.7293C3.2761 7.7293 3.60235 8.05016 3.60235 8.4575Z" fill="beige"/>
 </g>
</svg>
